<svg version="1.1" xmlns="http://www.w3.org/2000/svg" xmlns:xlink="http://www.w3.org/1999/xlink" width="79.3272" height="211.96938" viewBox="0,0,79.3272,211.96938"><g transform="translate(-197.43332,-188.82246)"><g data-paper-data="{&quot;isPaintingLayer&quot;:true}" fill-rule="nonzero" stroke-linecap="butt" stroke-linejoin="miter" stroke-miterlimit="10" stroke-dasharray="" stroke-dashoffset="0" style="mix-blend-mode: normal"><g stroke="none" stroke-width="1.62889"><g fill="#ffffff"><path d="M198.08492,193.10774h77.0467v207.0325h-77.0467z"/></g><g fill="#c3e8f3"><path d="M205.41492,229.10634h8.7961v157.1883h-8.7961z"/></g><g fill="#c3e8f3"><path d="M223.33282,229.10634h8.796v157.1883h-8.796z"/></g><g fill="#c3e8f3"><path d="M241.08772,229.10634h8.796v157.1883h-8.796z"/></g><g fill="#c3e8f3"><path d="M258.84272,229.10634h8.796v157.1883h-8.796z"/></g><g fill="#d1e6bb"><path d="M269.59342,220.47324h-64.9929v-19.3839h64.9929zM208.02122,217.05254h58.1515v-12.5425h-58.1515z"/></g><g fill="#d1e6bb"><path d="M200.03962,226.66304h76.2322v3.4206h-76.2322z"/></g><g fill="#d1e6bb"><path d="M203.94892,227.96614h3.4207v172.1741h-3.4207z"/></g><g fill="#d1e6bb"><path d="M212.90782,227.96614h3.4207v172.1741h-3.4207z"/></g><g fill="#d1e6bb"><path d="M221.70392,227.96614h3.4206v172.1741h-3.4206z"/></g><g fill="#d1e6bb"><path d="M230.66282,227.96614h3.4207v172.1741h-3.4207z"/></g><g fill="#d1e6bb"><path d="M239.45882,227.96614h3.4207v172.1741h-3.4207z"/></g><g fill="#d1e6bb"><path d="M248.41772,227.96614h3.4207v172.1741h-3.4207z"/></g><g fill="#d1e6bb"><path d="M257.21382,227.96614h3.4206v172.1741h-3.4206z"/></g><g fill="#d1e6bb"><path d="M266.17272,227.96614h3.4207v172.1741h-3.4207z"/></g><g fill="#d1e6bb"><path d="M273.33982,193.10774h3.4207v207.6841h-3.4207z"/></g><g fill="#d1e6bb"><path d="M197.43332,193.10774h3.4207v207.6841h-3.4207z"/></g></g><path d="M197.92202,191.34635h78.8385" fill="none" stroke="#d1e6bb" stroke-width="5.04778"/></g></g></svg>