<svg version="1.1" xmlns="http://www.w3.org/2000/svg" xmlns:xlink="http://www.w3.org/1999/xlink" width="56.3" height="212.9" viewBox="0,0,56.3,212.9"><g transform="translate(-211.9,-138.57711)"><g data-paper-data="{&quot;isPaintingLayer&quot;:true}" fill-rule="nonzero" stroke="none" stroke-width="1" stroke-linecap="butt" stroke-linejoin="miter" stroke-miterlimit="10" stroke-dasharray="" stroke-dashoffset="0" style="mix-blend-mode: normal"><path d="M231.8,242.5h7.8v16.1h-7.8z" data-paper-data="{&quot;index&quot;:null}" fill="#79cef3"/><path d="M211.9,138.57711h56.3v212.9h-56.3z" data-paper-data="{&quot;index&quot;:null}" fill="#40b4e5"/><path d="M222.1,332.9h7.8v16.1h-7.8z" data-paper-data="{&quot;index&quot;:null}" fill="#79cef3"/><path d="M251.3,332.9h7.8v16.1h-7.8z" data-paper-data="{&quot;index&quot;:null}" fill="#79cef3"/><path d="M231.8,314.6h7.8v16.1h-7.8z" data-paper-data="{&quot;index&quot;:null}" fill="#79cef3"/><path d="M231.8,260.5h7.8v16.1h-7.8z" data-paper-data="{&quot;index&quot;:null}" fill="#79cef3"/><path d="M220.7,260.5h7.8v16.1h-7.8z" data-paper-data="{&quot;index&quot;:null}" fill="#79cef3"/><path d="M252.8,190.3h7.8v16.1h-7.8z" data-paper-data="{&quot;index&quot;:null}" fill="#79cef3"/><path d="M241.7,190.3h7.8v16.1h-7.8z" data-paper-data="{&quot;index&quot;:null}" fill="#79cef3"/><path d="M231.8,278.4h7.8v16.1h-7.8z" data-paper-data="{&quot;index&quot;:null}" fill="#79cef3"/><path d="M231.8,211.3h7.8v16.1h-7.8z" data-paper-data="{&quot;index&quot;:null}" fill="#79cef3"/><path d="M232.7,168.7h7.8v16.1h-7.8z" data-paper-data="{&quot;index&quot;:null}" fill="#79cef3"/><path d="M220.7,211.3h7.8v16.1h-7.8z" data-paper-data="{&quot;index&quot;:null}" fill="#79cef3"/><path d="M220.4,168.8h7.8v16.1h-7.8z" data-paper-data="{&quot;index&quot;:null}" fill="#79cef3"/><path d="M251.3,314.6h7.8v16.1h-7.8z" data-paper-data="{&quot;index&quot;:null}" fill="#79cef3"/></g></g></svg>